<svg width="161" height="48" viewBox="0 0 161 48" fill="none" xmlns="http://www.w3.org/2000/svg">
<path d="M1.98258 28.848H0V25.3687H9.9129C13.9696 25.3687 16.8062 28.2838 16.8062 32.6094C16.8062 36.9351 13.9696 39.9442 9.9129 39.9442H5.97824V47.6238H1.98258V28.848ZM9.18087 36.4335C11.438 36.4335 12.719 34.929 12.719 32.6094C12.719 30.3212 11.438 28.848 9.24187 28.848H5.97824V36.4335H9.18087Z" fill="white"/>
<path d="M19.9483 35.7128C19.9483 35.2426 19.7043 35.0232 19.2773 35.0232H18.0573V31.6379H21.5954C22.9679 31.6379 23.6695 32.2334 23.6695 33.5813V34.5216C23.6695 35.1172 23.6085 35.5247 23.6085 35.5247H23.6695C24.371 33.2365 26.2316 31.4185 28.6107 31.4185C28.9462 31.4185 29.3122 31.4811 29.3122 31.4811V35.3993C29.3122 35.3993 28.9157 35.3366 28.3667 35.3366C26.7196 35.3366 24.8285 36.3083 24.127 38.6906C23.9135 39.4742 23.7915 40.3519 23.7915 41.2922V47.624H19.9483V35.7128Z" fill="white"/>
<path d="M38.9212 31.2616C43.6794 31.2616 47.4615 34.7409 47.4615 39.6308C47.4615 44.552 43.6794 48 38.9212 48C34.1935 48 30.4113 44.552 30.4113 39.6308C30.4113 34.7409 34.1935 31.2616 38.9212 31.2616ZM38.9212 44.6147C41.4528 44.6147 43.5574 42.6086 43.5574 39.6308C43.5574 36.6843 41.4528 34.6469 38.9212 34.6469C36.4201 34.6469 34.3155 36.6843 34.3155 39.6308C34.3155 42.6086 36.4201 44.6147 38.9212 44.6147Z" fill="white"/>
<path d="M55.9705 31.5751C60.1187 31.5751 62.1927 34.929 62.1927 38.7218C62.1927 39.0666 62.1317 39.5681 62.1317 39.5681H49.8987C49.8987 44.1132 52.8878 46.7148 56.426 46.7148C59.3541 46.7148 61.1537 44.7401 61.1537 44.7401L61.8552 45.8372C61.8552 45.8372 59.7201 48 56.426 48C52.1253 48 48.5566 44.8028 48.5566 39.8189C48.5587 34.5215 52.0663 31.5751 55.9705 31.5751ZM60.8507 38.3456C60.6982 34.5215 58.4716 32.7975 55.94 32.7975C53.1339 32.7975 50.5413 34.6783 49.9922 38.3456H60.8507Z" fill="white"/>
<path d="M65.3045 33.8319C65.3045 33.3618 65.0605 33.1423 64.6335 33.1423H63.3219V31.9512H64.8165C66.067 31.9512 66.5855 32.4841 66.5855 33.6752V34.5529C66.5855 35.2738 66.5245 35.838 66.5245 35.838H66.5855C67.1041 34.3648 69.1781 31.5751 72.9908 31.5751C76.9559 31.5751 78.0235 33.9887 78.0235 37.6874V45.7431C78.0235 46.2133 78.2675 46.4327 78.6945 46.4327H80.0061V47.6238H78.5115C77.261 47.6238 76.7424 47.091 76.7424 45.8058V38.1576C76.7424 35.4305 76.4069 32.8602 72.9908 32.8602C70.1237 32.8602 67.5921 34.929 66.8295 37.8441C66.6465 38.5024 66.5855 39.2233 66.5855 39.9756V47.6238H65.3045V33.8319Z" fill="white"/>
<path d="M88.2135 31.5751C92.3617 31.5751 94.4358 34.929 94.4358 38.7218C94.4358 39.0666 94.3748 39.5681 94.3748 39.5681H82.1418C82.1418 44.1132 85.1309 46.7148 88.669 46.7148C91.5971 46.7148 93.3967 44.7401 93.3967 44.7401L94.0982 45.8372C94.0982 45.8372 91.9632 48 88.669 48C84.3684 48 80.7997 44.8028 80.7997 39.8189C80.8018 34.5215 84.3094 31.5751 88.2135 31.5751ZM93.0937 38.3456C92.9412 34.5215 90.7146 32.7975 88.183 32.7975C85.3769 32.7975 82.7843 34.6783 82.2353 38.3456H93.0937Z" fill="white"/>
<path d="M97.5465 33.8319C97.5465 33.3618 97.3025 33.1423 96.8755 33.1423H95.5639V31.9512H97.0585C98.309 31.9512 98.8275 32.4841 98.8275 33.6752V34.5529C98.8275 35.2738 98.7665 35.838 98.7665 35.838H98.8275C99.5901 33.4871 102.244 31.5751 104.623 31.5751C107.673 31.5751 109.106 33.0483 109.442 35.838H109.503C110.357 33.4871 112.675 31.5751 115.298 31.5751C119.233 31.5751 120.392 33.9573 120.392 37.6874V45.7431C120.392 46.2133 120.636 46.4327 121.063 46.4327H122.374V47.6238H120.88C119.629 47.6238 119.111 47.091 119.111 45.8058V38.1576C119.111 35.2111 118.531 32.7975 115.298 32.7975C112.767 32.7975 110.601 35.1171 109.93 37.562C109.716 38.283 109.625 39.0666 109.625 39.9756V47.6238H108.344V38.1576C108.344 35.4619 107.978 32.7975 104.623 32.7975C101.908 32.7975 99.7731 35.2425 99.0715 37.8441C98.8885 38.5024 98.8275 39.2233 98.8275 39.9756V47.6238H97.5465V33.8319Z" fill="white"/>
<path d="M127.211 21.6282C127.211 26.4052 130.985 30.2795 135.629 30.2795C135.629 27.8889 137.516 25.9539 139.838 25.9539H148.257C155.231 25.9539 160.884 20.1404 160.884 12.9769C160.884 5.8135 155.233 0 148.257 0H137.734C131.922 0 127.211 4.84179 127.211 10.8141V21.6282Z" fill="white"/>
<path d="M145.861 9.91558L141.474 7.27004C141.271 7.1572 141.035 7.09033 140.783 7.09033C140.047 7.09033 139.449 7.63156 139.449 8.29817V17.9629C139.449 18.6296 140.047 19.1708 140.783 19.1708C141.056 19.1708 141.308 19.0956 141.519 18.9702H141.521L145.863 16.3476V9.91558H145.861Z" fill="#DF1D3D"/>
<path d="M149.511 12.1202L146.564 10.3419V15.9214L149.511 14.1431V14.141C149.875 13.9257 150.115 13.5538 150.115 13.1316C150.115 12.7074 149.875 12.3355 149.511 12.1202Z" fill="#DF1D3D"/>
</svg>